<?xml version="1.0" encoding="UTF-8"?>
<svg id="_圖層_1" data-name="圖層_1" xmlns="http://www.w3.org/2000/svg" version="1.1" viewBox="0 0 327.83 90.38">
  <!-- Generator: Adobe Illustrator 29.8.4, SVG Export Plug-In . SVG Version: 2.1.1 Build 6)  -->
  <defs>
    <style>
      .st0 {
        fill: #48afc1;
      }

      .st1 {
        fill: #37a0da;
      }

      .st2 {
        fill: #036eb7;
      }

      .st3 {
        fill: #7fcae4;
      }

      .st4 {
        opacity: .7;
      }

      .st5 {
        fill: #717071;
      }
    </style>
  </defs>
  <g>
    <polygon class="st5" points="85.71 52.59 109.32 52.6 109.33 46.84 92.27 46.83 92.27 36.45 105.79 36.46 105.79 31.07 92.28 31.06 92.28 21 109.1 21.02 109.11 15.5 85.74 15.48 85.71 52.59"/>
    <polygon class="st5" points="114.97 52.61 137.31 52.62 137.32 46.56 121.86 46.55 121.88 15.51 114.99 15.5 114.97 52.61"/>
    <polygon class="st5" points="142.13 52.63 165.75 52.64 165.75 46.88 148.69 46.86 148.7 36.49 162.22 36.49 162.22 31.11 148.7 31.1 148.71 21.04 165.52 21.06 165.53 15.54 142.16 15.52 142.13 52.63"/>
    <path class="st5" d="M191.7,39.77l6.07.68c-.39,3.72-1.8,6.78-4.22,9.18-2.42,2.4-5.61,3.59-9.55,3.59-3.31,0-6.01-.85-8.08-2.56-2.06-1.7-3.65-4.02-4.77-6.94-1.11-2.91-1.67-6.13-1.67-9.65,0-5.66,1.32-10.25,3.95-13.8,2.63-3.54,6.24-5.31,10.84-5.31,3.6,0,6.6,1.14,8.99,3.41,2.4,2.26,3.91,5.52,4.52,9.73l-6.07.65c-1.11-5.61-3.58-8.4-7.4-8.41-2.44,0-4.34,1.17-5.7,3.49-1.36,2.33-2.04,5.7-2.04,10.12,0,4.49.72,7.89,2.18,10.18,1.46,2.29,3.38,3.44,5.77,3.44,1.92,0,3.55-.76,4.9-2.31,1.35-1.53,2.11-3.37,2.29-5.51"/>
    <polygon class="st5" points="202.95 52.67 225.31 52.68 225.31 46.62 209.84 46.61 209.87 15.57 202.97 15.56 202.95 52.67"/>
    <polygon class="st5" points="230.12 52.68 253.73 52.7 253.73 46.94 236.67 46.93 236.68 36.54 250.2 36.55 250.2 31.17 236.68 31.16 236.69 21.11 253.51 21.12 253.51 15.6 230.14 15.58 230.12 52.68"/>
    <polygon class="st5" points="256.74 52.7 262.33 52.71 265.18 43.87 266.81 38.52 272.11 21.97 277.4 38.53 279.16 43.89 282.04 52.72 289.05 52.72 276.88 15.61 268.82 15.61 256.74 52.7"/>
    <path class="st1" d="M271.84,39.91l-2.9,7.24c-.47,1.24-.65,2.48,0,3.65.98,1.76,3.18,2.37,4.89,1.36,1.72-1.01,2.02-3.1,1.33-5l-2.9-7.24c-.09-.16-.33-.16-.42,0"/>
    <path class="st5" d="M319.7,15.65h-6.47v26.05c-1.43-2.48-14.51-26.05-14.51-26.05h-6.44v.04h-.02v37.04h6.46v-25.72c.44.78,14.51,25.72,14.51,25.72h6.44v-.04h.03V15.65Z"/>
  </g>
  <g>
    <polygon class="st3" points="40.23 82.21 8.13 63.67 40.23 45.14 72.33 63.67 40.23 82.21"/>
    <polygon class="st1" points="40.23 63.73 8.13 45.19 40.23 26.66 72.33 45.19 40.23 63.73"/>
    <polygon class="st2" points="40.23 45.24 8.13 26.71 40.23 8.18 72.33 26.71 40.23 45.24"/>
    <g class="st4">
      <polygon class="st0" points="40.23 45.24 40.23 82.21 8.13 63.67 8.13 26.71 40.23 45.24"/>
    </g>
  </g>
  <g>
    <path class="st5" d="M94.06,69.33l-.87,1.24c-.9-.73-1.52-1.2-1.87-1.41v.97h-4.04v-.66c-.92.66-1.79,1.18-2.59,1.55l-.91-1.25c2.17-1.02,3.8-2.22,4.9-3.6l1.58.32c-.05.12-.12.22-.22.32,1.43.73,2.78,1.56,4.03,2.52ZM92.97,81.19h-1.41v-.66h-3.55v.66h-1.43v-3.41c-.21,1.44-.73,2.63-1.57,3.57l-1.15-1c.96-1.16,1.45-2.73,1.45-4.71v-4.83h7.65v5.1h-6.21c0,.19-.01.45-.03.78h6.26v4.5ZM91.45,72.82v-.78h-4.71v.78h4.71ZM91.45,74.7v-.76h-4.71v.76h4.71ZM90.99,68.97c-.67-.44-1.31-.8-1.9-1.09-.26.29-.66.65-1.2,1.09h3.1ZM91.56,79.33v-1.38h-3.57v1.38h3.57ZM98.34,79.89c0,.46-.17.8-.51,1.02-.34.21-1.06.32-2.15.32-.33,0-.67-.01-1.04-.03l-.47-1.46c.53.05,1,.08,1.42.08.59,0,.96-.05,1.09-.14.13-.09.2-.23.2-.43v-12.92h1.48v13.57ZM95.77,78.11h-1.44v-10.53h1.44v10.53Z"/>
    <path class="st5" d="M111.89,72.82l-1.05,1.2c-.76-.81-1.6-1.52-2.52-2.14l1.02-1.15c.89.56,1.73,1.26,2.55,2.09ZM111.83,75.89c-.46,1.83-1.17,3.65-2.12,5.46l-1.38-.83c.79-1.44,1.51-3.23,2.18-5.38l1.33.75ZM112.22,68.75l-1.12,1.1c-.76-.88-1.66-1.71-2.71-2.48l1.12-1.07c1.09.8,1.99,1.61,2.71,2.45ZM123.2,75.33h-1.19v2.68h-4.03v1.6c0,.37-.08.69-.24.96-.16.27-.38.45-.67.53-.29.08-.84.12-1.65.12-.33,0-.63-.01-.9-.03l-.63-1.44c.36.02,1.11.03,2.24.03.07,0,.14-.04.21-.11.07-.07.1-.14.1-.21v-1.45h-3.79v-1.35h3.79v-1.33h-4.52v-1.34h4.52v-1.22h-3.81v-1.36h9.39v2.58h1.19v1.34ZM122.3,67.46c-2.46.74-5.63,1.07-9.52,1l-.58-1.39c3.89.07,6.97-.2,9.23-.81l.87,1.2ZM115.11,70.63l-1.34.51c-.39-.73-.74-1.3-1.05-1.72l1.37-.54c.44.56.78,1.14,1.02,1.75ZM118.32,70.55l-1.35.51c-.28-.71-.62-1.33-1-1.83l1.41-.6c.45.71.77,1.35.95,1.92ZM120.48,73.99v-1.22h-2.5v1.22h2.5ZM120.48,76.66v-1.33h-2.5v1.33h2.5ZM122.3,68.73c-.48,1-.95,1.77-1.41,2.33l-1.47-.5c.61-.76,1.11-1.54,1.49-2.32l1.39.49Z"/>
    <path class="st5" d="M139.82,67.5c-.78.26-1.61.46-2.52.61v2.2h2.14v1.43h-2.14v.47c.89.93,1.65,1.89,2.27,2.89l-1.05,1.12c-.4-.81-.81-1.5-1.22-2.07v7.03h-1.48v-6.73c-.79,1.54-1.56,2.67-2.3,3.39l-.86-1.34c1.18-1.2,2.21-2.78,3.08-4.76h-2.91v-1.43h3v-1.96c-.72.11-1.47.19-2.27.24l-.64-1.38c2.16-.11,4.22-.43,6.17-.99l.73,1.28ZM147.63,76.89l-1.58.24v4.08h-1.5v-3.88l-5.11.69-.13-1.49,5.25-.71v-9.41h1.5v9.21l1.53-.19.05,1.48ZM143.81,73.87l-1.02,1.14c-.71-.91-1.77-1.89-3.18-2.92l.99-1.1c1.37,1.01,2.44,1.98,3.21,2.89ZM144.05,69.75l-1.02,1.1c-.95-1.07-1.95-2-3-2.79l1.05-1.07c1.13.88,2.12,1.8,2.97,2.76Z"/>
    <path class="st5" d="M162.76,73.94c-.64.3-1.23.55-1.77.75v4.93c0,.49-.12.86-.36,1.13-.24.27-.64.4-1.2.41-.56,0-1.04,0-1.45-.01l-.47-1.48c.6.02,1.11.03,1.54.03.11,0,.21-.05.3-.15.1-.1.15-.21.15-.33v-3.98c-.62.22-1.27.42-1.94.59l-.41-1.39c1.06-.32,1.85-.58,2.35-.78v-3.15h-2.16v-1.44h2.16v-2.76h1.48v2.76h1.56v1.44h-1.56v2.56c.44-.14.93-.35,1.46-.61l.31,1.48ZM172.23,80.07l-.87,1.28c-1.61-.7-2.93-1.49-3.98-2.35-1.22.91-2.67,1.7-4.37,2.35l-.84-1.36c1.64-.55,3.02-1.22,4.13-2.01-.95-1.04-1.75-2.5-2.42-4.38h-.58v-1.43h3.37v-2.21h-3.6v-1.43h3.6v-2.16h1.53v2.16h3.57v1.43h-3.57v2.21h3.15v1.43c-.79,1.9-1.74,3.38-2.84,4.42.94.77,2.17,1.46,3.71,2.06ZM169.69,73.6h-4.17c.42,1.27,1.07,2.4,1.95,3.4.92-.93,1.67-2.06,2.22-3.4Z"/>
    <path class="st5" d="M187.29,79.77c0,.96-.56,1.44-1.67,1.44-.24,0-.5-.01-.76-.04l-.56-1.49c.2.01.64.02,1.3.02.16,0,.24-.08.24-.23v-4.1c-.52.65-.98,1.2-1.39,1.64l-.51-.86c-.17,2.38-.53,4.09-1.09,5.12l-1.23-.96c.59-1.31.89-3.19.89-5.63v-8.04h4.77v13.14ZM185.85,71.56v-3.45h-1.88v1.93l.86-.63c.45.79.79,1.51,1.02,2.16ZM185.85,72.95v-.97l-1,.76c-.15-.65-.44-1.39-.88-2.22v4.76c.7-.74,1.33-1.51,1.88-2.33ZM196.66,79.96l-.76,1.29c-1.41-.35-2.72-.99-3.94-1.89-.98.73-2.19,1.36-3.64,1.89l-.83-1.29c1.22-.36,2.32-.88,3.29-1.56-.83-.89-1.53-2.08-2.07-3.59h-.75v-1.43h7.55v1.43c-.72,1.51-1.51,2.68-2.37,3.52.97.69,2.14,1.24,3.52,1.64ZM196.49,72.44h-2.42c-.33,0-.6-.12-.81-.36-.21-.24-.31-.51-.31-.82v-3.07h-2.37v.76c0,1.7-.55,3.02-1.64,3.98l-1.25-.97c.92-.69,1.38-1.7,1.38-3.05v-2.16h5.35v4.03c0,.18.09.27.27.27h1.79v1.39ZM193.8,74.8h-3.48c.46,1.13,1.04,2,1.71,2.61.76-.85,1.35-1.72,1.77-2.61Z"/>
    <path class="st5" d="M211.08,66.56c-.18.52-.47,1.22-.85,2.09l-.59,1.29v11.31h-1.54v-8.69c-.45.66-.87,1.18-1.26,1.56l-.81-1.59c1.5-1.71,2.67-3.81,3.5-6.29l1.56.32ZM221.1,71.44l-.99,1.38-.34-.26c.01.63-.05,1.96-.17,4-.13,2.04-.24,3.23-.34,3.58s-.31.62-.61.83c-.31.2-.76.31-1.36.31-.34,0-.91,0-1.69-.02l-.39-1.47c.56.04.99.07,1.29.07.7,0,1.11-.07,1.25-.2s.25-1.01.34-2.63c.09-1.62.13-2.71.13-3.27h-2.57c-.18,3.5-1.66,6.03-4.45,7.59l-1.02-1.21c2.45-1.23,3.76-3.36,3.94-6.38h-2.74v-1.32c-.11.11-.26.22-.46.34l-.9-1.28c1.37-1.16,2.45-2.86,3.26-5.11l1.55.39c-.96,2.41-2.05,4.25-3.26,5.52h7.9c-1.18-1.15-2.06-2.58-2.63-4.28h-1.39v-1.44h2.55c.53,2.21,1.56,3.84,3.11,4.88Z"/>
    <path class="st5" d="M245.36,69.4h-8.26c-.22.45-.52.93-.89,1.46h7.98v9.11c0,.38-.1.67-.3.87-.2.21-.51.31-.92.32-.41.01-.81.02-1.21.02-.64,0-1.16,0-1.57-.03l-.66-1.51c.72.03,1.64.05,2.76.05.24,0,.36-.13.36-.39v-1.56h-7.58c-.29,1.2-.88,2.34-1.77,3.43l-1.45-.81c1.22-1.34,1.83-2.59,1.83-3.76v-2.73c-.75.79-1.49,1.41-2.22,1.88l-1.09-1.15c2.03-1.37,3.67-3.11,4.91-5.2h-4.73v-1.48h5.53c.36-.64.62-1.2.78-1.69l1.57.26c-.14.43-.34.91-.6,1.43h7.51v1.48ZM242.65,73.65v-1.34h-7.4v1.34h7.4ZM242.65,76.35v-1.33h-7.4v1.33h7.4Z"/>
    <path class="st5" d="M259.2,71.52c.95,1.37,1.42,2.66,1.42,3.88,0,1.59-.78,2.38-2.34,2.38-.17,0-.35,0-.54-.02l-.42-1.52c.22.04.47.06.76.06.4,0,.67-.06.81-.17.14-.11.22-.33.22-.66,0-1.25-.5-2.52-1.51-3.79.32-.79.71-1.97,1.17-3.54h-1.87v13.07h-1.46v-14.58h4.91v1.52c-.37,1.24-.74,2.37-1.14,3.38ZM268.97,73.76h-6.08v5.46c.78-.24,1.61-.57,2.5-.99l.08,1.59c-1.53.66-2.81,1.12-3.84,1.37l-.55-1.27c.22-.14.32-.36.32-.66v-12.58h7.57v7.09ZM267.45,69.56v-1.52h-4.57v1.52h4.57ZM267.45,72.41v-1.52h-4.57v1.52h4.57ZM269.91,80.06l-.86,1.25c-2.41-1.46-3.99-3.62-4.74-6.47l1.37-.42c.2.72.46,1.37.75,1.93.74-.53,1.46-1.21,2.16-2.04l1.09.99c-.84,1.02-1.66,1.82-2.46,2.4.71.92,1.61,1.71,2.7,2.37Z"/>
    <path class="st5" d="M285.73,66.78c-1.11,2.99-2.92,5.51-5.45,7.55l-.97-1.29c2.28-1.71,3.91-3.96,4.91-6.77l1.51.51ZM293.31,80.36l-1.35.94c-.31-.74-.63-1.38-.95-1.91-2.62.61-5.82,1.18-9.6,1.68l-.44-1.29c1.46-1.05,3.16-3.93,5.11-8.65l1.54.46c-1.38,3.23-2.79,5.8-4.25,7.72,2.55-.29,4.84-.69,6.87-1.2-.34-.59-.93-1.45-1.77-2.57l1.25-.81c1.41,1.77,2.61,3.65,3.59,5.64ZM294.42,73.11l-.91,1.34c-2.1-1.49-3.67-3.66-4.71-6.51h-1.38v-1.44h2.46c.87,2.9,2.38,5.1,4.52,6.62Z"/>
    <path class="st5" d="M318.16,79.21c0,1.32-.65,1.98-1.94,1.98-1.15,0-1.98-.01-2.52-.03l-.44-1.53c1.26.03,2.14.04,2.63.04s.73-.14.73-.43v-11.19h-12.72v-1.39h14.25v12.55ZM315.23,70.89h-10.96v-1.38h10.96v1.38ZM314.14,78.2h-8.89v-5.73h8.89v5.73ZM312.6,76.79v-2.92h-5.84v2.92h5.84Z"/>
  </g>
</svg>