<svg xmlns="http://www.w3.org/2000/svg" width="30" height="30" viewBox="0 0 30 30">
    <g fill="none" fill-rule="evenodd">
        <g>
            <g>
                <g>
                    <g>
                        <g>
                            <g>
                                <g>
                                    <path fill="#06C755" d="M16.266 21H4.734C2.12 21 0 18.88 0 16.266V4.734C0 2.12 2.12 0 4.734 0h11.532C18.88 0 21 2.12 21 4.734v11.532C21 18.88 18.88 21 16.266 21" transform="translate(-501.000000, -362.000000) translate(352.000000, 216.000000) translate(146.000000, 143.000000) translate(3.000000, 3.000000) translate(4.500000, 4.500000)"/>
                                    <path fill="#FFF" d="M17.5 9.51c0-3.132-3.141-5.681-7.002-5.681-3.86 0-7.002 2.549-7.002 5.682 0 2.808 2.491 5.16 5.856 5.605.228.05.538.15.617.345.07.177.046.455.022.634l-.1.599c-.03.177-.14.692.607.377.747-.315 4.032-2.374 5.5-4.064 1.015-1.113 1.501-2.243 1.501-3.496" transform="translate(-501.000000, -362.000000) translate(352.000000, 216.000000) translate(146.000000, 143.000000) translate(3.000000, 3.000000) translate(4.500000, 4.500000)"/>
                                    <path fill="#06C755" d="M15.17 11.32H13.203c-.074 0-.134-.06-.134-.134V8.13c0-.073.06-.133.134-.133H15.17c.074 0 .134.06.134.133v.497c0 .074-.06.134-.134.134h-1.337v.515h1.337c.074 0 .134.06.134.134v.497c0 .073-.06.133-.134.133h-1.337v.516h1.337c.074 0 .134.06.134.133v.497c0 .074-.06.134-.134.134M7.894 11.32c.074 0 .134-.06.134-.134v-.497c0-.073-.06-.133-.134-.133H6.557V8.13c0-.073-.06-.133-.134-.133h-.496c-.074 0-.134.06-.134.133V11.186c0 .074.06.134.134.134H7.894zM9.078 7.997h-.496c-.074 0-.134.06-.134.133v3.056c0 .074.06.134.134.134h.496c.074 0 .134-.06.134-.134V8.13c0-.073-.06-.133-.134-.133M12.458 7.997h-.496c-.074 0-.134.06-.134.133v1.815L10.43 8.057l-.01-.014h-.001l-.009-.009-.002-.002-.007-.006-.004-.003-.007-.005-.004-.002-.007-.004-.005-.002-.008-.004-.004-.001-.008-.003-.005-.001-.008-.002h-.005l-.008-.002h-.505c-.074 0-.134.06-.134.133v3.056c0 .074.06.134.134.134h.496c.074 0 .134-.06.134-.134V9.372l1.4 1.89c.01.014.021.025.034.034h.002l.008.006.004.002.007.003.006.003.004.002.01.003h.002c.01.003.022.005.035.005h.493c.074 0 .134-.06.134-.134V8.13c0-.073-.06-.133-.134-.133" transform="translate(-501.000000, -362.000000) translate(352.000000, 216.000000) translate(146.000000, 143.000000) translate(3.000000, 3.000000) translate(4.500000, 4.500000)"/>
                                </g>
                            </g>
                        </g>
                    </g>
                </g>
            </g>
        </g>
    </g>
</svg>
