<svg xmlns="http://www.w3.org/2000/svg" width="30" height="30" viewBox="0 0 30 30">
    <g fill="none" fill-rule="evenodd">
        <g>
            <g>
                <g>
                    <g>
                        <g>
                            <g>
                                <path d="M0 0H30V30H0z" transform="translate(-747.000000, -266.000000) translate(352.000000, 216.000000) translate(392.000000, 47.000000) translate(3.000000, 3.000000)"/>
                                <g transform="translate(-747.000000, -266.000000) translate(352.000000, 216.000000) translate(392.000000, 47.000000) translate(3.000000, 3.000000) translate(4.000000, 4.000000)">
                                    <circle cx="11" cy="11" r="11" fill="#1877F2"/>
                                    <path fill="#FFF" d="M15.282 14.18L15.77 11h-3.051V8.937c0-.87.426-1.718 1.792-1.718h1.387V4.512s-1.258-.215-2.462-.215c-2.513 0-4.155 1.523-4.155 4.28V11H6.488v3.18h2.793v7.686c.56.088 1.134.134 1.719.134.585 0 1.159-.046 1.719-.134V14.18h2.563z"/>
                                </g>
                            </g>
                        </g>
                    </g>
                </g>
            </g>
        </g>
    </g>
</svg>
