<svg xmlns="http://www.w3.org/2000/svg" width="30" height="30" viewBox="0 0 30 30">
    <g fill="none" fill-rule="evenodd">
        <g>
            <g>
                <g>
                    <g>
                        <g>
                            <g>
                                <path d="M0 0H30V30H0z" transform="translate(-957.000000, -314.000000) translate(352.000000, 216.000000) translate(602.000000, 95.000000) translate(3.000000, 3.000000)"/>
                                <g>
                                    <path fill="red" d="M21.45 2.395c-.253-.943-.995-1.685-1.938-1.937C17.804 0 10.953 0 10.953 0s-6.85 0-8.558.458C1.452.71.71 1.452.458 2.395 0 4.103 0 7.668 0 7.668s0 3.564.458 5.272c.252.943.994 1.685 1.937 1.937 1.708.458 8.558.458 8.558.458s6.851 0 8.56-.458c.942-.252 1.684-.994 1.936-1.937.458-1.708.458-5.272.458-5.272s0-3.565-.458-5.273" transform="translate(-957.000000, -314.000000) translate(352.000000, 216.000000) translate(602.000000, 95.000000) translate(3.000000, 3.000000) translate(4.000072, 7.330000)"/>
                                    <path fill="#FFF" d="M8.763 10.954L14.454 7.668 8.763 4.381z" transform="translate(-957.000000, -314.000000) translate(352.000000, 216.000000) translate(602.000000, 95.000000) translate(3.000000, 3.000000) translate(4.000072, 7.330000)"/>
                                </g>
                            </g>
                        </g>
                    </g>
                </g>
            </g>
        </g>
    </g>
</svg>
