<svg xmlns="http://www.w3.org/2000/svg" width="30" height="30" viewBox="0 0 30 30">
    <defs>
        <linearGradient id="u80issykba" x1="9.696%" x2="90.388%" y1="92.408%" y2="7.702%">
            <stop offset="0%" stop-color="#FD5"/>
            <stop offset="50.304%" stop-color="#FE543F"/>
            <stop offset="100%" stop-color="#C837AB"/>
        </linearGradient>
    </defs>
    <g fill="none" fill-rule="evenodd">
        <g>
            <g>
                <g>
                    <g>
                        <g>
                            <g>
                                <path d="M0 0H30V30H0z" transform="translate(-872.000000, -266.000000) translate(352.000000, 216.000000) translate(517.000000, 47.000000) translate(3.000000, 3.000000)"/>
                                <path fill="url(#u80issykba)" d="M19.705 4.5c3.196 0 5.795 2.6 5.795 5.795v9.41c0 3.195-2.6 5.795-5.795 5.795h-9.41C7.1 25.5 4.5 22.9 4.5 19.705v-9.41C4.5 7.1 7.1 4.5 10.295 4.5zm0 1.863h-9.41c-2.168 0-3.932 1.764-3.932 3.932v9.41c0 2.168 1.764 3.932 3.932 3.932h9.41c2.168 0 3.932-1.764 3.932-3.932v-9.41c0-2.168-1.764-3.932-3.932-3.932zM15 9.59c2.984 0 5.411 2.427 5.411 5.411 0 2.984-2.427 5.411-5.411 5.411-2.984 0-5.411-2.427-5.411-5.411 0-2.984 2.427-5.41 5.41-5.41zm0 1.863c-1.956 0-3.548 1.592-3.548 3.548s1.592 3.548 3.548 3.548 3.548-1.592 3.548-3.548-1.592-3.548-3.548-3.548zm5.638-3.443c.36 0 .713.146.967.4s.4.606.4.967c0 .358-.146.711-.4.966-.255.254-.606.4-.967.4-.359 0-.711-.146-.965-.4-.255-.255-.401-.608-.401-.966 0-.36.146-.713.4-.967.255-.254.607-.4.966-.4z" transform="translate(-872.000000, -266.000000) translate(352.000000, 216.000000) translate(517.000000, 47.000000) translate(3.000000, 3.000000)"/>
                            </g>
                        </g>
                    </g>
                </g>
            </g>
        </g>
    </g>
</svg>
